<?xml version="1.0" encoding="UTF-8"?>
<!DOCTYPE svg PUBLIC "-//W3C//DTD SVG 1.1//EN" "http://www.w3.org/Graphics/SVG/1.1/DTD/svg11.dtd">
<svg xmlns="http://www.w3.org/2000/svg" version="1.1" width="32px" height="32px" style="shape-rendering:geometricPrecision; text-rendering:geometricPrecision; image-rendering:optimizeQuality; fill-rule:evenodd; clip-rule:evenodd" xmlns:xlink="http://www.w3.org/1999/xlink">
<g><path style="opacity:0.964" fill="#d2d2d4" d="M -0.5,0.5 C 10.1667,0.5 20.8333,0.5 31.5,0.5C 31.5,1.5 31.5,2.5 31.5,3.5C 20.8333,3.5 10.1667,3.5 -0.5,3.5C -0.5,2.5 -0.5,1.5 -0.5,0.5 Z"/></g>
<g><path style="opacity:0.575" fill="#d1d1d3" d="M 31.5,14.5 C 31.5,15.5 31.5,16.5 31.5,17.5C 20.8333,17.5 10.1667,17.5 -0.5,17.5C -0.5,16.5 -0.5,15.5 -0.5,14.5C 10.1667,13.1667 20.8333,13.1667 31.5,14.5 Z"/></g>
<g><path style="opacity:0.762" fill="#d1d1d3" d="M -0.5,27.5 C 10.1667,27.5 20.8333,27.5 31.5,27.5C 31.5,28.5 31.5,29.5 31.5,30.5C 20.8333,30.5 10.1667,30.5 -0.5,30.5C -0.5,29.5 -0.5,28.5 -0.5,27.5 Z"/></g>
</svg>
