<?xml version="1.0" encoding="UTF-8"?>
<!DOCTYPE svg PUBLIC "-//W3C//DTD SVG 1.1//EN" "http://www.w3.org/Graphics/SVG/1.1/DTD/svg11.dtd">
<svg xmlns="http://www.w3.org/2000/svg" version="1.1" width="64px" height="64px" style="shape-rendering:geometricPrecision; text-rendering:geometricPrecision; image-rendering:optimizeQuality; fill-rule:evenodd; clip-rule:evenodd" xmlns:xlink="http://www.w3.org/1999/xlink">
<g><path style="opacity:0.68" fill="#000000" d="M 29.5,-0.5 C 30.8333,-0.5 32.1667,-0.5 33.5,-0.5C 35.0938,0.983048 36.7605,2.48305 38.5,4C 33.8333,4.66667 29.1667,4.66667 24.5,4C 26.2395,2.48305 27.9062,0.983048 29.5,-0.5 Z"/></g>
<g><path style="opacity:0.839" fill="#000000" d="M 11.5,7.5 C 24.8333,7.5 38.1667,7.5 51.5,7.5C 51.6664,16.1731 51.4998,24.8397 51,33.5C 47.0776,36.2114 43.2443,39.0447 39.5,42C 34.1667,42.6667 28.8333,42.6667 23.5,42C 19.7557,39.0447 15.9224,36.2114 12,33.5C 11.5002,24.8397 11.3336,16.1731 11.5,7.5 Z M 29.5,12.5 C 38.1608,12.4728 43.1608,16.6395 44.5,25C 44.4684,27.8953 43.4684,30.3953 41.5,32.5C 38.0135,32.7604 34.5135,33.0937 31,33.5C 25.2404,31.2237 23.5737,27.2237 26,21.5C 28.0606,18.872 30.5606,18.2054 33.5,19.5C 35.9366,16.8506 37.27,17.5172 37.5,21.5C 36.5282,24.4642 36.3615,27.4642 37,30.5C 38.5874,31.727 39.9207,31.3937 41,29.5C 42.1222,17.6263 36.9556,13.4596 25.5,17C 20.1667,23 20.1667,29 25.5,35C 27.8947,35.6813 30.228,36.5147 32.5,37.5C 32.1667,38.5 31.5,39.1667 30.5,39.5C 19.9007,36.5252 16.4007,29.8585 20,19.5C 22.529,16.1151 25.6956,13.7818 29.5,12.5 Z"/></g>
<g><path style="opacity:0.626" fill="#000000" d="M 6.5,18.5 C 7.78683,19.8714 8.4535,21.7047 8.5,24C 8.16667,25.8333 7.83333,27.6667 7.5,29.5C 4.8288,28.3422 2.8288,26.5089 1.5,24C 3.3505,22.317 5.01717,20.4837 6.5,18.5 Z"/></g>
<g><path style="opacity:0.633" fill="#000000" d="M 54.5,18.5 C 63.1948,21.6497 63.5281,25.3164 55.5,29.5C 54.5108,25.8927 54.1774,22.226 54.5,18.5 Z"/></g>
<g><path style="opacity:0.73" fill="#000000" d="M 29.5,21.5 C 34.5485,22.311 35.7152,24.9777 33,29.5C 29.7175,30.9114 27.8842,29.7448 27.5,26C 27.5186,24.167 28.1852,22.667 29.5,21.5 Z"/></g>
<g><path style="opacity:0.897" fill="#000000" d="M -0.5,27.5 C 7.2206,32.3742 14.5539,37.8742 21.5,44C 14.2918,50.0472 6.95848,55.8805 -0.5,61.5C -0.5,50.1667 -0.5,38.8333 -0.5,27.5 Z"/></g>
<g><path style="opacity:0.897" fill="#000000" d="M 63.5,27.5 C 63.5,38.8333 63.5,50.1667 63.5,61.5C 56.0415,55.8805 48.7082,50.0472 41.5,44C 48.4461,37.8742 55.7794,32.3742 63.5,27.5 Z"/></g>
<g><path style="opacity:0.933" fill="#000000" d="M 61.5,63.5 C 41.5,63.5 21.5,63.5 1.5,63.5C 8.93412,57.9109 16.2675,52.0776 23.5,46C 28.8333,45.3333 34.1667,45.3333 39.5,46C 47.0851,51.6122 54.4184,57.4455 61.5,63.5 Z"/></g>
</svg>
